<svg xmlns="http://www.w3.org/2000/svg" viewBox="0 0 252 76">
  <view id="symbol" viewBox="0 0 64 76"/>
  <defs>
    <linearGradient id="paper" x1="0" y1="0" x2="64" y2="76" gradientUnits="userSpaceOnUse"><stop stop-color="#063C69"/><stop offset="1" stop-color="#14A8B8"/></linearGradient>
  </defs>
  <g fill="none" stroke-linecap="round" stroke-linejoin="round">
    <path d="M5 57V11a8 8 0 0 1 8-8h27" stroke="url(#paper)" stroke-width="6" stroke-linecap="butt"/>
    <path d="M58 24v39a7 7 0 0 1-7 7H21" stroke="url(#paper)" stroke-width="6" stroke-linecap="butt"/>
    <path d="M44 3v13a5 5 0 0 0 5 5h12Z" fill="#159BAF" stroke="none"/>
    <path d="M15 18h20M15 26h25M24 34h23" stroke="#829BA6" stroke-width="3.6"/>
    <g stroke="#5B7886" stroke-width="1.35">
      <path d="M2 39a31 31 0 0 1 38 30"/>
      <path d="M15 42a24 24 0 0 1 19 21" stroke-dasharray="3 4"/>
      <path d="M2 57h38M16 36v36"/>
      <path d="M16 29v3M43 57h3m4 0h3"/>
      <path d="M12 53h8v8h-8Z" fill="white"/>
    </g>
  </g>
  <g font-family="Arial, Helvetica, sans-serif" font-weight="800" letter-spacing="-1.5">
    <text x="73" y="37" font-size="40" fill="#063C69">PT</text>
    <text x="122" y="37" font-size="40" fill="#1593A7">Auto</text>
    <text x="73" y="71" font-size="38" fill="#39464E">Docs</text>
  </g>
</svg>
